<svg width="30" height="30" viewBox="0 0 30 30" fill="none" xmlns="http://www.w3.org/2000/svg">
<rect x="3" y="3" width="24" height="24" rx="12" fill="#FFDD99"/>
<path d="M29.9669 19.6798C30.0269 19.5231 30.0044 19.3468 29.9069 19.2103C29.8127 19.0698 29.6511 18.9899 29.4824 19.0003L28.9999 19.0173V17.5002C28.9999 17.2241 28.776 17.0002 28.4999 17.0002H27.4999V7.00009H28.4999V6.00008H27.4999V2.50003H26.4999V4.00005H25.4999V5.00007H26.4999V17.0002H25.4999C25.2238 17.0002 24.9999 17.2241 24.9999 17.5002V19.1553L23.9999 19.1898V11.0001C23.9999 10.724 23.776 10.5001 23.4999 10.5001H17.4999C17.2238 10.5001 16.9999 10.724 16.9999 11.0001V15.5002H11.5C11.2238 15.5002 11 15.7241 11 16.0002V19.6383L10.5 19.6553V11.7052L17.9999 4.20506V6.00008C17.1715 6.00008 16.4999 6.67165 16.4999 7.5001C16.4999 8.32855 17.1715 9.00012 17.9999 9.00012H19.9999V8.00011H17.9999C17.7238 8.00011 17.4999 7.77623 17.4999 7.5001C17.4999 7.22397 17.7238 7.00009 17.9999 7.00009H18.4999C18.776 7.00009 18.9999 6.77621 18.9999 6.50009V0.500007C18.9999 0.223878 18.7761 0 18.4999 0C18.3979 0 18.2982 0.0312504 18.2144 0.0895012L8.28047 7.00009H1.99999C1.72387 7.00009 1.49999 7.22397 1.49999 7.5001V19.9658L0.482498 20.0003C0.206562 20.0101 -0.00924996 20.2417 0.000562498 20.5177C0.00287499 20.583 0.0179999 20.6473 0.0449998 20.7068L2.22349 25.5003H0V26.5004H29.9999V25.5003H27.7279L29.9669 19.6798ZM25.9999 18.0002H27.9999V19.0503L25.9999 19.1193V18.0002ZM17.9999 11.5002H22.9999V15.5002H17.9999V11.5002ZM17.9999 16.5002H22.9999V19.2243L17.9999 19.3963V16.5002ZM12 16.5002H16.9999V19.4308L12 19.6033V16.5002ZM17.9999 1.45702V2.79304L10.5 10.2931V7.5001C10.4991 7.23472 10.29 7.01684 10.025 7.00509L17.9999 1.45702ZM2.49999 8.00011H9.49996V19.6898L2.49999 19.9308V8.00011ZM3.32199 25.5003L1.26449 20.9743L28.7644 20.0243L26.6564 25.5003H3.32199Z" fill="#664757"/>
<path d="M4.49998 8.99972H3.49999V10.9997H4.49998V8.99972Z" fill="#664757"/>
<path d="M6.49997 8.99972H5.49998V10.9997H6.49997V8.99972Z" fill="#664757"/>
<path d="M8.49996 8.99972H7.49997V10.9997H8.49996V8.99972Z" fill="#664757"/>
<path d="M8.99996 12.9998H2.99999V13.9998H8.99996V12.9998Z" fill="#664757"/>
<path d="M8.99996 14.9998H2.99999V15.9998H8.99996V14.9998Z" fill="#664757"/>
<path d="M24.4999 20.9999H23.4999V21.9999H24.4999V20.9999Z" fill="#664757"/>
<path d="M26.4999 20.9999H25.4999V21.9999H26.4999V20.9999Z" fill="#664757"/>
<path d="M22.4999 20.9999H21.4999V21.9999H22.4999V20.9999Z" fill="#664757"/>
<path d="M28.9999 27H22.4999V28H28.9999V27Z" fill="#664757"/>
<path d="M20.4999 29H17.4999V30H20.4999V29Z" fill="#664757"/>
<path d="M14.9999 28H12.9999V29H14.9999V28Z" fill="#664757"/>
<path d="M3.49999 27.5H0V28.5H3.49999V27.5Z" fill="#664757"/>
<path d="M5.49998 27.5H4.49998V28.5H5.49998V27.5Z" fill="#664757"/>
</svg>
