<svg width="40" height="40" viewBox="0 0 40 40" fill="none" xmlns="http://www.w3.org/2000/svg">
<path fill-rule="evenodd" clip-rule="evenodd" d="M4.48236 0.0657181C2.53012 0.393448 0.782618 1.99113 0.156115 4.02122C0.00749553 4.50285 0 5.18105 0 18.1542C0 31.1467 0.00731962 31.805 0.156791 32.2922C0.421326 33.1545 0.951682 34.0716 1.52666 34.6608C2.02149 35.1679 2.98245 35.8206 3.42805 35.952C3.61968 36.0086 3.61968 36.0086 3.61968 38.0042C3.61968 40 3.61968 40 5.45081 40C7.28195 40 7.28195 40 7.28195 38.1689C7.28195 36.3377 7.28195 36.3377 19.9721 36.3377C32.6623 36.3377 32.6623 36.3377 32.6623 38.1689C32.6623 40 32.6623 40 34.4934 40C36.3246 40 36.3246 40 36.3246 38.0042C36.3246 36.0086 36.3246 36.0086 36.5162 35.952C36.9618 35.8206 37.9228 35.1679 38.4176 34.6608C38.9926 34.0716 39.5229 33.1545 39.7875 32.2922C39.9369 31.805 39.9442 31.1467 39.9442 18.1542C39.9442 5.16487 39.9369 4.50319 39.7875 4.01611C39.2302 2.19818 37.8509 0.804303 35.9837 0.171753C35.5344 0.0195564 34.897 0.0126579 20.2276 0.00107491C11.4785 -0.00590895 4.74417 0.0217709 4.48236 0.0657181ZM34.9719 3.71938C35.4441 3.85054 35.8343 4.15417 36.0691 4.57303C36.282 4.95297 36.282 4.95297 36.3074 7.91259C36.3327 10.8722 36.3327 10.8722 19.9721 10.8722C3.61151 10.8722 3.61151 10.8722 3.63689 7.91259C3.66227 4.95297 3.66227 4.95297 3.87519 4.57729C3.9923 4.37058 4.18614 4.12913 4.30597 4.04055C4.8709 3.62306 4.19287 3.64052 19.9295 3.63702C29.549 3.63489 34.7707 3.66351 34.9719 3.71938ZM9.07049 7.25253C9.07049 9.08366 9.07049 9.08366 10.9016 9.08366C12.7328 9.08366 12.7328 9.08366 12.7328 7.25253C12.7328 5.4214 12.7328 5.4214 10.9016 5.4214C9.07049 5.4214 9.07049 5.4214 9.07049 7.25253ZM18.1836 7.25253C18.1836 9.08366 18.1836 9.08366 19.9721 9.08366C21.7607 9.08366 21.7607 9.08366 21.7607 7.25253C21.7607 5.4214 21.7607 5.4214 19.9721 5.4214C18.1836 5.4214 18.1836 5.4214 18.1836 7.25253ZM27.2115 7.25253C27.2115 9.08366 27.2115 9.08366 29.0426 9.08366C30.8738 9.08366 30.8738 9.08366 30.8738 7.25253C30.8738 5.4214 30.8738 5.4214 29.0426 5.4214C27.2115 5.4214 27.2115 5.4214 27.2115 7.25253ZM36.3246 22.8073C36.3246 28.7596 36.2973 31.1711 36.2274 31.4046C36.094 31.8496 35.6818 32.3254 35.266 32.5142C34.9855 32.6417 34.704 32.6721 33.7923 32.6736C32.6654 32.6755 32.6654 32.6755 32.6425 25.997C32.6197 19.3185 32.6197 19.3185 32.3642 18.9558C32.2237 18.7563 31.9398 18.5039 31.7334 18.3949C31.3579 18.1967 31.3579 18.1967 19.9721 18.1967C8.58631 18.1967 8.58631 18.1967 8.21088 18.3949C8.00443 18.5039 7.72057 18.7563 7.58004 18.9558C7.32453 19.3185 7.32454 19.3185 7.30171 25.997C7.27889 32.6755 7.27889 32.6755 6.15193 32.6736C5.24028 32.6721 4.9587 32.6417 4.67824 32.5142C4.26245 32.3254 3.85023 31.8496 3.71686 31.4046C3.64693 31.1711 3.61968 28.7596 3.61968 22.8073C3.61968 14.5345 3.61968 14.5345 19.9721 14.5345C36.3246 14.5345 36.3246 14.5345 36.3246 22.8073ZM29.0651 24.5205C29.0876 27.2247 29.0876 27.2247 19.9733 27.2247C10.859 27.2247 10.859 27.2247 10.859 24.5561C10.859 23.0883 10.8848 21.8616 10.9162 21.8302C10.9476 21.7988 15.039 21.7828 20.008 21.7947C29.0426 21.8164 29.0426 21.8164 29.0651 24.5205ZM29.0852 31.7812C29.0852 32.6755 29.0852 32.6755 19.9721 32.6755C10.859 32.6755 10.859 32.6755 10.859 31.7812C10.859 30.8869 10.859 30.8869 19.9721 30.8869C29.0852 30.8869 29.0852 30.8869 29.0852 31.7812Z" fill="#DC5132"/>
</svg>
